<?xml version="1.0" encoding="UTF-8" standalone="no"?>
<!-- Created with Inkscape (http://www.inkscape.org/) -->

<svg
   xmlns:dc="http://purl.org/dc/elements/1.1/"
   xmlns:cc="http://creativecommons.org/ns#"
   xmlns:rdf="http://www.w3.org/1999/02/22-rdf-syntax-ns#"
   xmlns:svg="http://www.w3.org/2000/svg"
   xmlns="http://www.w3.org/2000/svg"
   xmlns:sodipodi="http://sodipodi.sourceforge.net/DTD/sodipodi-0.dtd"
   xmlns:inkscape="http://www.inkscape.org/namespaces/inkscape"
   version="1.1"
   id="svg2"
   xml:space="preserve"
   width="16"
   height="16"
   viewBox="0 0 16 16"
   sodipodi:docname="caution.svg"
   inkscape:version="0.92.1 unknown"><metadata
     id="metadata8"><rdf:RDF><cc:Work
         rdf:about=""><dc:format>image/svg+xml</dc:format><dc:type
           rdf:resource="http://purl.org/dc/dcmitype/StillImage" /><dc:title></dc:title></cc:Work></rdf:RDF></metadata><defs
     id="defs6" /><sodipodi:namedview
     pagecolor="#ffffff"
     bordercolor="#666666"
     borderopacity="1"
     objecttolerance="10"
     gridtolerance="10"
     guidetolerance="10"
     inkscape:pageopacity="0"
     inkscape:pageshadow="2"
     inkscape:window-width="1366"
     inkscape:window-height="744"
     id="namedview4"
     showgrid="false"
     inkscape:zoom="7.0781252"
     inkscape:cx="-41.403972"
     inkscape:cy="-21.383028"
     inkscape:window-x="0"
     inkscape:window-y="24"
     inkscape:window-maximized="1"
     inkscape:current-layer="g10"
     fit-margin-top="0"
     fit-margin-left="0"
     fit-margin-right="0"
     fit-margin-bottom="0" /><g
     id="g10"
     inkscape:groupmode="layer"
     inkscape:label="ink_ext_XXXXXX"
     transform="matrix(1.3333333,0,0,-1.3333333,0,16)"><g
       transform="scale(0.1875)"
       inkscape:label="ink_ext_XXXXXX"
       id="g4993"
       style="stroke-width:5.33333302"><g
         transform="scale(0.1)"
         id="g4995"
         style="stroke-width:5.33333302"><path
           inkscape:connector-curvature="0"
           id="path4997"
           style="fill:#c84755;fill-opacity:1;fill-rule:nonzero;stroke:none;stroke-width:5.33333302"
           d="M 640,320 C 640,143.27 496.73,0 320,0 143.27,0 0,143.27 0,320 0,496.73 143.27,640 320,640 496.73,640 640,496.73 640,320" /><path
           inkscape:connector-curvature="0"
           id="path4999"
           style="fill:#a43f4a;fill-opacity:1;fill-rule:nonzero;stroke:none;stroke-width:5.33333302"
           d="M 470.461,140 H 169.539 c -44,0 -62,31.176 -40,69.281 L 280,469.883 c 11,19.055 25.5,28.582 40,28.582 14.5,0 29,-9.527 40,-28.582 L 510.461,209.281 c 22,-38.105 4,-69.281 -40,-69.281" /><path
           inkscape:connector-curvature="0"
           id="path5001"
           style="fill:#f3cc70;fill-opacity:1;fill-rule:nonzero;stroke:none;stroke-width:5.33333302"
           d="m 169.539,160 c -44,0 -62,31.176 -40,69.281 L 280,489.883 c 22,38.105 58,38.105 80,0 L 510.461,229.281 c 22,-38.105 4,-69.281 -40,-69.281 H 169.539" /><path
           inkscape:connector-curvature="0"
           id="path5003"
           style="fill:#495672;fill-opacity:1;fill-rule:nonzero;stroke:none;stroke-width:5.33333302"
           d="m 340,320 c 0,-11.047 -8.953,-20 -20,-20 -11.047,0 -20,8.953 -20,20 v 80 c 0,11.047 8.953,20 20,20 11.047,0 20,-8.953 20,-20 v -80" /><path
           inkscape:connector-curvature="0"
           id="path5005"
           style="fill:#495672;fill-opacity:1;fill-rule:nonzero;stroke:none;stroke-width:5.33333302"
           d="m 340,240 c 0,-11.047 -8.953,-20 -20,-20 -11.047,0 -20,8.953 -20,20 0,11.047 8.953,20 20,20 11.047,0 20,-8.953 20,-20" /></g></g></g></svg>