<?xml version="1.0" encoding="UTF-8" standalone="no"?>
<!-- Created with Inkscape (http://www.inkscape.org/) -->

<svg
   xmlns:dc="http://purl.org/dc/elements/1.1/"
   xmlns:cc="http://creativecommons.org/ns#"
   xmlns:rdf="http://www.w3.org/1999/02/22-rdf-syntax-ns#"
   xmlns:svg="http://www.w3.org/2000/svg"
   xmlns="http://www.w3.org/2000/svg"
   xmlns:sodipodi="http://sodipodi.sourceforge.net/DTD/sodipodi-0.dtd"
   xmlns:inkscape="http://www.inkscape.org/namespaces/inkscape"
   version="1.1"
   id="svg2"
   xml:space="preserve"
   width="32"
   height="32"
   viewBox="0 0 32 32"
   sodipodi:docname="chat.svg"
   inkscape:version="0.92.2 (unknown)"><metadata
     id="metadata8"><rdf:RDF><cc:Work
         rdf:about=""><dc:format>image/svg+xml</dc:format><dc:type
           rdf:resource="http://purl.org/dc/dcmitype/StillImage" /><dc:title></dc:title></cc:Work></rdf:RDF></metadata><defs
     id="defs6" /><sodipodi:namedview
     pagecolor="#ffffff"
     bordercolor="#666666"
     borderopacity="1"
     objecttolerance="10"
     gridtolerance="10"
     guidetolerance="10"
     inkscape:pageopacity="0"
     inkscape:pageshadow="2"
     inkscape:window-width="1366"
     inkscape:window-height="744"
     id="namedview4"
     showgrid="false"
     fit-margin-top="0"
     fit-margin-left="0"
     fit-margin-right="0"
     fit-margin-bottom="0"
     inkscape:zoom="1"
     inkscape:cx="33.416256"
     inkscape:cy="42.666662"
     inkscape:window-x="0"
     inkscape:window-y="24"
     inkscape:window-maximized="1"
     inkscape:current-layer="g10" /><g
     id="g10"
     inkscape:groupmode="layer"
     inkscape:label="ink_ext_XXXXXX"
     transform="matrix(1.3333333,0,0,-1.3333333,0,31.999999)"><g
       id="g12"
       transform="scale(0.0375)"
       style="stroke-width:2.66666651"><path
         d="M 640,320 C 640,143.27 496.73,0 320,0 143.27,0 0,143.27 0,320 0,496.73 143.27,640 320,640 496.73,640 640,496.73 640,320"
         style="fill:#7db6d8;fill-opacity:1;fill-rule:nonzero;stroke:none;stroke-width:2.66666651"
         id="path14"
         inkscape:connector-curvature="0" /><path
         d="m 320,80 c 0,0 -5.367,24.031 -12.254,60.559 C 203.027,146.281 120,224.313 120,320 c 0,99.41 89.543,180 200,180 110.457,0 200,-80.59 200,-180 C 520,252.055 478.137,192.941 416.391,162.305 370.453,110.441 320,80 320,80"
         style="fill:#6594b2;fill-opacity:1;fill-rule:nonzero;stroke:none;stroke-width:2.66666651"
         id="path16"
         inkscape:connector-curvature="0" /><path
         d="M 490,352 C 490,202.371 320,100 320,100 c 0,0 -93.887,420 0,420 93.887,0 170,-75.215 170,-168"
         style="fill:#ffffff;fill-opacity:1;fill-rule:nonzero;stroke:none;stroke-width:2.66666651"
         id="path18"
         inkscape:connector-curvature="0" /><path
         d="m 520,340 c 0,-99.41 -89.543,-180 -200,-180 -110.457,0 -200,80.59 -200,180 0,99.41 89.543,180 200,180 110.457,0 200,-80.59 200,-180"
         style="fill:#ffffff;fill-opacity:1;fill-rule:nonzero;stroke:none;stroke-width:2.66666651"
         id="path20"
         inkscape:connector-curvature="0" /><path
         d="m 340,340 c 0,11.047 -8.953,20 -20,20 -11.047,0 -20,-8.953 -20,-20 0,-11.047 8.953,-20 20,-20 11.047,0 20,8.953 20,20"
         style="fill:#495672;fill-opacity:1;fill-rule:nonzero;stroke:none;stroke-width:2.66666651"
         id="path22"
         inkscape:connector-curvature="0" /><path
         d="m 420,340 c 0,11.047 -8.953,20 -20,20 -11.047,0 -20,-8.953 -20,-20 0,-11.047 8.953,-20 20,-20 11.047,0 20,8.953 20,20"
         style="fill:#495672;fill-opacity:1;fill-rule:nonzero;stroke:none;stroke-width:2.66666651"
         id="path24"
         inkscape:connector-curvature="0" /><path
         d="m 260,340 c 0,11.047 -8.953,20 -20,20 -11.047,0 -20,-8.953 -20,-20 0,-11.047 8.953,-20 20,-20 11.047,0 20,8.953 20,20"
         style="fill:#495672;fill-opacity:1;fill-rule:nonzero;stroke:none;stroke-width:2.66666651"
         id="path26"
         inkscape:connector-curvature="0" /></g></g></svg>