<?xml version="1.0" encoding="UTF-8" standalone="no"?>
<!-- Created with Inkscape (http://www.inkscape.org/) -->

<svg
   xmlns:dc="http://purl.org/dc/elements/1.1/"
   xmlns:cc="http://creativecommons.org/ns#"
   xmlns:rdf="http://www.w3.org/1999/02/22-rdf-syntax-ns#"
   xmlns:svg="http://www.w3.org/2000/svg"
   xmlns="http://www.w3.org/2000/svg"
   xmlns:sodipodi="http://sodipodi.sourceforge.net/DTD/sodipodi-0.dtd"
   xmlns:inkscape="http://www.inkscape.org/namespaces/inkscape"
   version="1.1"
   id="svg2"
   xml:space="preserve"
   width="32"
   height="32"
   viewBox="0 0 32 32"
   sodipodi:docname="focus.svg"
   inkscape:version="0.92.2 (unknown)"><metadata
     id="metadata8"><rdf:RDF><cc:Work
         rdf:about=""><dc:format>image/svg+xml</dc:format><dc:type
           rdf:resource="http://purl.org/dc/dcmitype/StillImage" /><dc:title></dc:title></cc:Work></rdf:RDF></metadata><defs
     id="defs6" /><sodipodi:namedview
     pagecolor="#ffffff"
     bordercolor="#666666"
     borderopacity="1"
     objecttolerance="10"
     gridtolerance="10"
     guidetolerance="10"
     inkscape:pageopacity="0"
     inkscape:pageshadow="2"
     inkscape:window-width="1366"
     inkscape:window-height="744"
     id="namedview4"
     showgrid="false"
     fit-margin-top="0"
     fit-margin-left="0"
     fit-margin-right="0"
     fit-margin-bottom="0"
     inkscape:zoom="6.7412107"
     inkscape:cx="42.666668"
     inkscape:cy="42.666665"
     inkscape:window-x="0"
     inkscape:window-y="24"
     inkscape:window-maximized="1"
     inkscape:current-layer="g10" /><g
     id="g10"
     inkscape:groupmode="layer"
     inkscape:label="ink_ext_XXXXXX"
     transform="matrix(1.3333333,0,0,-1.3333333,0,31.999999)"><g
       id="g12"
       transform="scale(0.0375)"
       style="stroke-width:2.66666651"><path
         d="M 640,320 C 640,143.27 496.73,0 320,0 143.27,0 0,143.27 0,320 0,496.73 143.27,640 320,640 496.73,640 640,496.73 640,320"
         style="fill:#495672;fill-opacity:1;fill-rule:nonzero;stroke:none;stroke-width:2.66666651"
         id="path14"
         inkscape:connector-curvature="0" /><path
         d="m 165,360 c -8.285,0 -15,6.715 -15,15 v 80 c 0,8.285 6.715,15 15,15 h 80 c 8.285,0 15,-6.715 15,-15 0,-8.285 -6.715,-15 -15,-15 h -65 v -65 c 0,-8.285 -6.715,-15 -15,-15"
         style="fill:#404a5f;fill-opacity:1;fill-rule:nonzero;stroke:none;stroke-width:2.66666651"
         id="path16"
         inkscape:connector-curvature="0" /><path
         d="m 475,360 c -8.285,0 -15,6.715 -15,15 v 65 h -65 c -8.285,0 -15,6.715 -15,15 0,8.285 6.715,15 15,15 h 80 c 8.285,0 15,-6.715 15,-15 v -80 c 0,-8.285 -6.715,-15 -15,-15"
         style="fill:#404a5f;fill-opacity:1;fill-rule:nonzero;stroke:none;stroke-width:2.66666651"
         id="path18"
         inkscape:connector-curvature="0" /><path
         d="m 475,130 h -80 c -8.285,0 -15,6.715 -15,15 0,8.285 6.715,15 15,15 h 65 v 65 c 0,8.285 6.715,15 15,15 8.285,0 15,-6.715 15,-15 v -80 c 0,-8.285 -6.715,-15 -15,-15"
         style="fill:#404a5f;fill-opacity:1;fill-rule:nonzero;stroke:none;stroke-width:2.66666651"
         id="path20"
         inkscape:connector-curvature="0" /><path
         d="m 245,130 h -80 c -8.285,0 -15,6.715 -15,15 v 80 c 0,8.285 6.715,15 15,15 8.285,0 15,-6.715 15,-15 v -65 h 65 c 8.285,0 15,-6.715 15,-15 0,-8.285 -6.715,-15 -15,-15"
         style="fill:#404a5f;fill-opacity:1;fill-rule:nonzero;stroke:none;stroke-width:2.66666651"
         id="path22"
         inkscape:connector-curvature="0" /><path
         d="m 350,255 h -60 c -8.285,0 -15,6.715 -15,15 v 60 c 0,8.285 6.715,15 15,15 h 60 c 8.285,0 15,-6.715 15,-15 v -60 c 0,-8.285 -6.715,-15 -15,-15 m -45,60 v -30 h 30 v 30 h -30"
         style="fill:#404a5f;fill-opacity:1;fill-rule:nonzero;stroke:none;stroke-width:2.66666651"
         id="path24"
         inkscape:connector-curvature="0" /><path
         d="m 180,395 v 65 h 65 c 8.285,0 15,6.715 15,15 0,8.285 -6.715,15 -15,15 h -80 c -3.949,0 -7.812,-1.602 -10.605,-4.395 C 151.602,482.813 150,478.949 150,475 v -80 c 0,-8.285 6.715,-15 15,-15 8.285,0 15,6.715 15,15"
         style="fill:#ffffff;fill-opacity:1;fill-rule:nonzero;stroke:none;stroke-width:2.66666651"
         id="path26"
         inkscape:connector-curvature="0" /><path
         d="m 395,460 h 65 v -65 c 0,-8.285 6.715,-15 15,-15 8.285,0 15,6.715 15,15 v 80 c 0,3.949 -1.602,7.813 -4.395,10.605 C 482.813,488.398 478.949,490 475,490 h -80 c -8.285,0 -15,-6.715 -15,-15 0,-8.285 6.715,-15 15,-15"
         style="fill:#ffffff;fill-opacity:1;fill-rule:nonzero;stroke:none;stroke-width:2.66666651"
         id="path28"
         inkscape:connector-curvature="0" /><path
         d="m 460,245 v -65 h -65 c -8.285,0 -15,-6.715 -15,-15 0,-8.285 6.715,-15 15,-15 h 80 c 3.949,0 7.813,1.602 10.605,4.395 2.793,2.793 4.395,6.656 4.395,10.605 v 80 c 0,8.285 -6.715,15 -15,15 -8.285,0 -15,-6.715 -15,-15"
         style="fill:#ffffff;fill-opacity:1;fill-rule:nonzero;stroke:none;stroke-width:2.66666651"
         id="path30"
         inkscape:connector-curvature="0" /><path
         d="m 245,180 h -65 v 65 c 0,8.285 -6.715,15 -15,15 -8.285,0 -15,-6.715 -15,-15 v -80 c 0,-3.949 1.602,-7.812 4.395,-10.605 C 157.188,151.602 161.051,150 165,150 h 80 c 8.285,0 15,6.715 15,15 0,8.285 -6.715,15 -15,15"
         style="fill:#ffffff;fill-opacity:1;fill-rule:nonzero;stroke:none;stroke-width:2.66666651"
         id="path32"
         inkscape:connector-curvature="0" /><path
         d="m 350,290 v 15 h -45 v 30 h 30 v -45 h 15 v 15 -15 h 15 v 60 c 0,3.949 -1.602,7.813 -4.395,10.605 C 357.813,363.398 353.949,365 350,365 h -60 c -3.949,0 -7.812,-1.602 -10.605,-4.395 C 276.602,357.813 275,353.949 275,350 v -60 c 0,-3.949 1.602,-7.812 4.395,-10.605 C 282.188,276.602 286.051,275 290,275 h 60 c 3.949,0 7.813,1.602 10.605,4.395 2.793,2.793 4.395,6.656 4.395,10.605 h -15"
         style="fill:#c84755;fill-opacity:1;fill-rule:nonzero;stroke:none;stroke-width:2.66666651"
         id="path34"
         inkscape:connector-curvature="0" /></g></g></svg>