<?xml version="1.0" encoding="UTF-8" standalone="no"?>
<!-- Created with Inkscape (http://www.inkscape.org/) -->

<svg
   xmlns:dc="http://purl.org/dc/elements/1.1/"
   xmlns:cc="http://creativecommons.org/ns#"
   xmlns:rdf="http://www.w3.org/1999/02/22-rdf-syntax-ns#"
   xmlns:svg="http://www.w3.org/2000/svg"
   xmlns="http://www.w3.org/2000/svg"
   xmlns:sodipodi="http://sodipodi.sourceforge.net/DTD/sodipodi-0.dtd"
   xmlns:inkscape="http://www.inkscape.org/namespaces/inkscape"
   version="1.1"
   id="svg2"
   xml:space="preserve"
   width="16"
   height="16"
   viewBox="0 0 16 16"
   sodipodi:docname="gps.svg"
   inkscape:version="0.92.1 unknown"><metadata
     id="metadata8"><rdf:RDF><cc:Work
         rdf:about=""><dc:format>image/svg+xml</dc:format><dc:type
           rdf:resource="http://purl.org/dc/dcmitype/StillImage" /><dc:title></dc:title></cc:Work></rdf:RDF></metadata><defs
     id="defs6" /><sodipodi:namedview
     pagecolor="#ffffff"
     bordercolor="#666666"
     borderopacity="1"
     objecttolerance="10"
     gridtolerance="10"
     guidetolerance="10"
     inkscape:pageopacity="0"
     inkscape:pageshadow="2"
     inkscape:window-width="1366"
     inkscape:window-height="744"
     id="namedview4"
     showgrid="false"
     inkscape:zoom="7.0781252"
     inkscape:cx="-41.403972"
     inkscape:cy="-21.383028"
     inkscape:window-x="0"
     inkscape:window-y="24"
     inkscape:window-maximized="1"
     inkscape:current-layer="g10"
     fit-margin-top="0"
     fit-margin-left="0"
     fit-margin-right="0"
     fit-margin-bottom="0" /><g
     id="g10"
     inkscape:groupmode="layer"
     inkscape:label="ink_ext_XXXXXX"
     transform="matrix(1.3333333,0,0,-1.3333333,0,16)"><g
       transform="matrix(0,-0.1875,0.1875,0,0,12)"
       inkscape:label="ink_ext_XXXXXX"
       id="g5369"
       style="stroke-width:5.33333302"><g
         transform="scale(0.1)"
         id="g5371"
         style="stroke-width:5.33333302"><path
           inkscape:connector-curvature="0"
           id="path5373"
           style="fill:#c84755;fill-opacity:1;fill-rule:nonzero;stroke:none;stroke-width:5.33333302"
           d="M 640,320 C 640,143.27 496.73,0 320,0 143.27,0 0,143.27 0,320 0,496.73 143.27,640 320,640 496.73,640 640,496.73 640,320" /><path
           inkscape:connector-curvature="0"
           id="path5375"
           style="fill:#a43f4a;fill-opacity:1;fill-rule:nonzero;stroke:none;stroke-width:5.33333302"
           d="M 436.055,177.281 326.02,232.297 c -1.891,0.949 -3.961,1.422 -6.02,1.422 -2.059,0 -4.129,-0.473 -6.02,-1.422 L 203.945,177.281 320,438.391 436.055,177.281" /><path
           inkscape:connector-curvature="0"
           id="path5377"
           style="fill:#a43f4a;fill-opacity:1;fill-rule:nonzero;stroke:none;stroke-width:5.33333302"
           d="m 176.41,134.992 c -3.387,0 -6.738,1.281 -9.301,3.735 -4.109,3.929 -5.308,10.011 -3.004,15.203 l 143.59,323.078 c 2.164,4.859 6.985,7.992 12.305,7.992 5.32,0 10.141,-3.133 12.305,-7.992 L 475.895,153.93 c 2.304,-5.192 1.105,-11.274 -3.004,-15.203 -2.563,-2.45 -5.911,-3.727 -9.301,-3.727 -2.051,0 -4.11,0.465 -6.02,1.418 L 320,205.203 182.43,136.418 c -1.91,-0.957 -3.973,-1.426 -6.02,-1.426 M 320,233.719 c 2.059,0 4.129,-0.473 6.02,-1.422 L 436.055,177.281 320,438.391 203.945,177.281 313.98,232.297 c 1.891,0.949 3.961,1.422 6.02,1.422" /><path
           inkscape:connector-curvature="0"
           id="path5379"
           style="fill:#ffffff;fill-opacity:1;fill-rule:nonzero;stroke:none;stroke-width:5.33333302"
           d="M 320,490 179.211,173.227 320,243.621 460.789,173.227 320,490" /><path
           inkscape:connector-curvature="0"
           id="path5381"
           style="fill:#ffffff;fill-opacity:1;fill-rule:nonzero;stroke:none;stroke-width:5.33333302"
           d="M 320,490 306.293,496.094 165.504,179.32 c -2.574,-5.797 -1.238,-12.554 3.344,-16.937 4.586,-4.379 11.402,-5.406 17.074,-2.57 L 320,226.852 454.078,159.813 c 5.672,-2.836 12.488,-1.809 17.074,2.57 4.582,4.383 5.918,11.14 3.344,16.937 L 333.707,496.094 C 331.301,501.508 325.926,505 320,505 c -5.926,0 -11.301,-3.488 -13.707,-8.906 L 320,490 306.293,483.91 430.102,205.344 326.707,257.039 c -4.215,2.106 -9.203,2.106 -13.414,0 L 209.898,205.344 333.707,483.91 320,490 306.293,483.91 320,490" /></g></g></g></svg>