<?xml version="1.0" encoding="UTF-8" standalone="no"?>
<!-- Created with Inkscape (http://www.inkscape.org/) -->

<svg
   xmlns:dc="http://purl.org/dc/elements/1.1/"
   xmlns:cc="http://creativecommons.org/ns#"
   xmlns:rdf="http://www.w3.org/1999/02/22-rdf-syntax-ns#"
   xmlns:svg="http://www.w3.org/2000/svg"
   xmlns="http://www.w3.org/2000/svg"
   xmlns:sodipodi="http://sodipodi.sourceforge.net/DTD/sodipodi-0.dtd"
   xmlns:inkscape="http://www.inkscape.org/namespaces/inkscape"
   version="1.1"
   id="svg2"
   xml:space="preserve"
   width="16"
   height="16"
   viewBox="0 0 16 16"
   sodipodi:docname="minus.svg"
   inkscape:version="0.92.1 unknown"><metadata
     id="metadata8"><rdf:RDF><cc:Work
         rdf:about=""><dc:format>image/svg+xml</dc:format><dc:type
           rdf:resource="http://purl.org/dc/dcmitype/StillImage" /><dc:title></dc:title></cc:Work></rdf:RDF></metadata><defs
     id="defs6" /><sodipodi:namedview
     pagecolor="#ffffff"
     bordercolor="#666666"
     borderopacity="1"
     objecttolerance="10"
     gridtolerance="10"
     guidetolerance="10"
     inkscape:pageopacity="0"
     inkscape:pageshadow="2"
     inkscape:window-width="1366"
     inkscape:window-height="744"
     id="namedview4"
     showgrid="false"
     inkscape:zoom="25.503539"
     inkscape:cx="-1.4681646"
     inkscape:cy="9.7677906"
     inkscape:window-x="0"
     inkscape:window-y="24"
     inkscape:window-maximized="1"
     inkscape:current-layer="g10"
     fit-margin-top="0"
     fit-margin-left="0"
     fit-margin-right="0"
     fit-margin-bottom="0" /><g
     id="g10"
     inkscape:groupmode="layer"
     inkscape:label="ink_ext_XXXXXX"
     transform="matrix(1.3333333,0,0,-1.3333333,0,16)"><path
       inkscape:connector-curvature="0"
       id="path4628"
       style="fill:#e08e4c;fill-opacity:1;fill-rule:nonzero;stroke:none;stroke-width:0.09999999"
       d="M 12,6 C 12,2.6863125 9.3136875,0 6,0 2.6863125,0 0,2.6863125 0,6 c 0,3.3136875 2.6863125,6 6,6 3.3136875,0 6,-2.6863125 6,-6" /><path
       inkscape:connector-curvature="0"
       id="path4634"
       style="fill:#62a48d;fill-opacity:1;fill-rule:nonzero;stroke:none;stroke-width:0.09999999"
       d="M 8.8689982,4.2278049 H 6.8827688 v 1.7655373 h 1.9862294 c 0.4875974,0 0.8827687,-0.3953478 0.8827687,-0.8827686 0,-0.4875974 -0.3951713,-0.8827687 -0.8827687,-0.8827687 m -3.7517667,0 H 3.1310021 c -0.4875974,0 -0.8827686,0.3951713 -0.8827686,0.8827687 0,0.4874208 0.3951712,0.8827686 0.8827686,0.8827686 H 5.1172315 V 4.2278049" /><path
       inkscape:connector-curvature="0"
       id="path4636"
       style="fill:#62a48d;fill-opacity:1;fill-rule:nonzero;stroke:none;stroke-width:0.09999999"
       d="M 5.1172315,4.2278049 H 6.8827688 V 5.9933422 H 5.1172315 Z" /><path
       inkscape:connector-curvature="0"
       id="path4644"
       style="fill:#ffffff;fill-opacity:1;fill-rule:nonzero;stroke:none;stroke-width:0.09999999"
       d="M 8.8689982,5.110397 H 3.1310021 c -0.4875974,0 -0.8827686,0.3951713 -0.8827686,0.8827686 0,0.4875974 0.3951712,0.8827687 0.8827686,0.8827687 h 5.7379961 c 0.4875974,0 0.8827687,-0.3951713 0.8827687,-0.8827687 0,-0.4875973 -0.3951713,-0.8827686 -0.8827687,-0.8827686" /></g></svg>