<?xml version="1.0" encoding="UTF-8" standalone="no"?>
<!-- Created with Inkscape (http://www.inkscape.org/) -->

<svg
   xmlns:dc="http://purl.org/dc/elements/1.1/"
   xmlns:cc="http://creativecommons.org/ns#"
   xmlns:rdf="http://www.w3.org/1999/02/22-rdf-syntax-ns#"
   xmlns:svg="http://www.w3.org/2000/svg"
   xmlns="http://www.w3.org/2000/svg"
   xmlns:sodipodi="http://sodipodi.sourceforge.net/DTD/sodipodi-0.dtd"
   xmlns:inkscape="http://www.inkscape.org/namespaces/inkscape"
   version="1.1"
   id="svg2"
   xml:space="preserve"
   width="16"
   height="16"
   viewBox="0 0 16 16"
   sodipodi:docname="plus.svg"
   inkscape:version="0.92.1 unknown"><metadata
     id="metadata8"><rdf:RDF><cc:Work
         rdf:about=""><dc:format>image/svg+xml</dc:format><dc:type
           rdf:resource="http://purl.org/dc/dcmitype/StillImage" /><dc:title /></cc:Work></rdf:RDF></metadata><defs
     id="defs6" /><sodipodi:namedview
     pagecolor="#ffffff"
     bordercolor="#666666"
     borderopacity="1"
     objecttolerance="10"
     gridtolerance="10"
     guidetolerance="10"
     inkscape:pageopacity="0"
     inkscape:pageshadow="2"
     inkscape:window-width="1366"
     inkscape:window-height="744"
     id="namedview4"
     showgrid="false"
     inkscape:zoom="37.75"
     inkscape:cx="8"
     inkscape:cy="8"
     inkscape:window-x="0"
     inkscape:window-y="24"
     inkscape:window-maximized="1"
     inkscape:current-layer="g10"
     fit-margin-top="0"
     fit-margin-left="0"
     fit-margin-right="0"
     fit-margin-bottom="0" /><g
     id="g10"
     inkscape:groupmode="layer"
     inkscape:label="ink_ext_XXXXXX"
     transform="matrix(1.3333333,0,0,-1.3333333,0,16)"><path
       inkscape:connector-curvature="0"
       id="path4628"
       style="fill:#4ce08e;fill-opacity:1;fill-rule:nonzero;stroke:none;stroke-width:0.09999999"
       d="M 12,6 C 12,2.6863125 9.3136875,0 6,0 2.6863125,0 0,2.6863125 0,6 c 0,3.3136875 2.6863125,6 6,6 3.3136875,0 6,-2.6863125 6,-6" /><g
       id="g4722"
       transform="matrix(2.3540497,0,0,2.3540497,-7.2415294,-9.0139012)"
       style="stroke-width:0.42479986"><path
         d="m 5.625,4.406325 c -0.2071313,0 -0.375,0.1678687 -0.375,0.375 v 0.84375 H 6 v -0.84375 c 0,-0.2071313 -0.1678687,-0.375 -0.375,-0.375 M 6,6.375075 H 5.25 v 0.84375 c 0,0.2070562 0.1678687,0.375 0.375,0.375 0.2071313,0 0.375,-0.1679438 0.375,-0.375 v -0.84375"
         style="fill:#62a48d;fill-opacity:1;fill-rule:nonzero;stroke:none;stroke-width:0.04247998"
         id="path4632"
         inkscape:connector-curvature="0" /><path
         d="M 6.84375,5.625075 H 6 v 0.75 h 0.84375 c 0.2071313,0 0.375,-0.1679437 0.375,-0.375 0,-0.2071313 -0.1678687,-0.375 -0.375,-0.375 m -1.59375,0 H 4.40625 c -0.2071313,0 -0.375,0.1678687 -0.375,0.375 0,0.2070563 0.1678687,0.375 0.375,0.375 H 5.25 v -0.75"
         style="fill:#62a48d;fill-opacity:1;fill-rule:nonzero;stroke:none;stroke-width:0.04247998"
         id="path4634"
         inkscape:connector-curvature="0" /><path
         d="M 5.25,5.625075 H 6 v 0.75 H 5.25 Z"
         style="fill:#538777;fill-opacity:1;fill-rule:nonzero;stroke:none;stroke-width:0.04247998"
         id="path4636"
         inkscape:connector-curvature="0" /><path
         d="m 5.625,4.78125 c -0.2071313,0 -0.375,0.1678687 -0.375,0.375 v 2.4375 c 0,0.2071312 0.1678687,0.375 0.375,0.375 C 5.8321313,7.96875 6,7.8008812 6,7.59375 V 5.15625 C 6,4.9491187 5.8321313,4.78125 5.625,4.78125"
         style="fill:#ffffff;fill-opacity:1;fill-rule:nonzero;stroke:none;stroke-width:0.04247998"
         id="path4642"
         inkscape:connector-curvature="0" /><path
         d="m 6.84375,6 h -2.4375 c -0.2071313,0 -0.375,0.1678687 -0.375,0.375 0,0.2071313 0.1678687,0.375 0.375,0.375 h 2.4375 c 0.2071313,0 0.375,-0.1678687 0.375,-0.375 C 7.21875,6.1678687 7.0508813,6 6.84375,6"
         style="fill:#ffffff;fill-opacity:1;fill-rule:nonzero;stroke:none;stroke-width:0.04247998"
         id="path4644"
         inkscape:connector-curvature="0" /></g></g></svg>