<?xml version="1.0" encoding="UTF-8" standalone="no"?>
<!-- Created with Inkscape (http://www.inkscape.org/) -->

<svg
   xmlns:dc="http://purl.org/dc/elements/1.1/"
   xmlns:cc="http://creativecommons.org/ns#"
   xmlns:rdf="http://www.w3.org/1999/02/22-rdf-syntax-ns#"
   xmlns:svg="http://www.w3.org/2000/svg"
   xmlns="http://www.w3.org/2000/svg"
   xmlns:sodipodi="http://sodipodi.sourceforge.net/DTD/sodipodi-0.dtd"
   xmlns:inkscape="http://www.inkscape.org/namespaces/inkscape"
   id="svg2"
   version="1.1"
   inkscape:version="0.92.1 unknown"
   xml:space="preserve"
   width="85.333336"
   height="85.333336"
   viewBox="0 0 80 80"
   sodipodi:docname="prompt.svg"><metadata
     id="metadata8"><rdf:RDF><cc:Work
         rdf:about=""><dc:format>image/svg+xml</dc:format><dc:type
           rdf:resource="http://purl.org/dc/dcmitype/StillImage" /><dc:title /></cc:Work></rdf:RDF></metadata><defs
     id="defs6" /><sodipodi:namedview
     pagecolor="#ffffff"
     bordercolor="#666666"
     borderopacity="1"
     objecttolerance="10"
     gridtolerance="10"
     guidetolerance="10"
     inkscape:pageopacity="0"
     inkscape:pageshadow="2"
     inkscape:window-width="1366"
     inkscape:window-height="744"
     id="namedview4"
     showgrid="false"
     inkscape:zoom="7.0781248"
     inkscape:cx="115.35541"
     inkscape:cy="42.666668"
     inkscape:window-x="0"
     inkscape:window-y="24"
     inkscape:window-maximized="1"
     inkscape:current-layer="g10" /><g
     id="g10"
     inkscape:groupmode="layer"
     inkscape:label="ink_ext_XXXXXX"
     transform="matrix(1.25,0,0,-1.25,0,80)"><path
       style="color:#000000;clip-rule:nonzero;display:inline;overflow:visible;visibility:visible;opacity:1;isolation:auto;mix-blend-mode:normal;color-interpolation:sRGB;color-interpolation-filters:linearRGB;solid-color:#000000;solid-opacity:1;fill:#ffffff;fill-opacity:1;fill-rule:nonzero;stroke:none;stroke-width:1.06666672;stroke-linecap:butt;stroke-linejoin:miter;stroke-miterlimit:4;stroke-dasharray:none;stroke-dashoffset:0;stroke-opacity:1;color-rendering:auto;image-rendering:auto;shape-rendering:auto;text-rendering:auto;enable-background:accumulate"
       d="M 42.666016 0 A 42.666668 42.666668 0 0 0 0 42.666016 A 42.666668 42.666668 0 0 0 42.666016 85.333984 A 42.666668 42.666668 0 0 0 85.333984 42.666016 A 42.666668 42.666668 0 0 0 42.666016 0 z M 14.662109 29.335938 C 14.8138 29.329642 14.967136 29.339416 15.119141 29.359375 C 15.169612 29.366002 15.219273 29.377136 15.269531 29.386719 C 15.380041 29.407766 15.489141 29.435127 15.597656 29.470703 C 15.643529 29.485735 15.689027 29.499911 15.734375 29.517578 C 15.873126 29.571667 16.008679 29.635592 16.140625 29.714844 C 16.150263 29.720633 16.160329 29.724544 16.169922 29.730469 L 16.171875 29.730469 L 30.345703 38.46875 L 30.566406 38.689453 C 30.703414 38.826595 30.83129 38.968033 30.951172 39.115234 L 30.951172 39.117188 C 31.070672 39.264004 31.182687 39.414828 31.285156 39.570312 L 31.285156 39.572266 C 31.490255 39.883682 31.662027 40.210679 31.798828 40.548828 C 31.935836 40.887415 32.038918 41.237138 32.107422 41.591797 C 32.24443 42.301114 32.24443 43.032901 32.107422 43.742188 C 32.047772 44.050992 31.957293 44.353259 31.845703 44.650391 C 31.829139 44.694496 31.816536 44.739445 31.798828 44.783203 C 31.730151 44.953107 31.654279 45.119377 31.568359 45.283203 C 31.482729 45.446448 31.387912 45.605846 31.285156 45.761719 L 31.285156 45.763672 C 31.182639 45.919087 31.07072 46.070047 30.951172 46.216797 C 30.831003 46.364406 30.703797 46.50704 30.566406 46.644531 L 30.345703 46.865234 L 16.169922 55.603516 C 15.734895 55.872256 15.251291 55.999659 14.775391 56 C 14.551824 56 14.32889 55.972792 14.113281 55.917969 C 13.46645 55.75335 12.880153 55.346122 12.501953 54.732422 C 12.405403 54.575722 12.326443 54.414459 12.265625 54.248047 C 12.143989 53.915222 12.0931 53.566734 12.107422 53.224609 C 12.143227 52.369297 12.58913 51.546953 13.373047 51.064453 L 26.869141 42.742188 C 26.882741 42.692719 26.882741 42.641264 26.869141 42.591797 L 13.373047 34.271484 C 13.215822 34.174713 13.072808 34.063129 12.943359 33.941406 C 12.814541 33.820485 12.699828 33.689482 12.599609 33.548828 L 12.599609 33.546875 C 12.49952 33.406237 12.41216 33.257025 12.341797 33.101562 L 12.341797 33.099609 C 12.200808 32.787584 12.121744 32.4515 12.107422 32.109375 C 12.0931 31.76725 12.143989 31.418763 12.265625 31.085938 C 12.326443 30.919523 12.405403 30.758265 12.501953 30.601562 L 12.501953 30.599609 C 12.510179 30.586272 12.52283 30.577594 12.53125 30.564453 C 12.635746 30.40154 12.755374 30.255112 12.886719 30.123047 C 12.932263 30.077196 12.980987 30.038109 13.029297 29.996094 C 13.136575 29.902808 13.24818 29.818111 13.367188 29.744141 C 13.422502 29.709756 13.47772 29.678543 13.535156 29.648438 C 13.657694 29.584117 13.783761 29.530732 13.914062 29.486328 C 13.971043 29.466952 14.02587 29.445173 14.083984 29.429688 C 14.273446 29.378965 14.465467 29.344097 14.662109 29.335938 z M 36.355469 29.335938 C 36.507159 29.329643 36.660319 29.339577 36.8125 29.359375 C 36.860379 29.365694 36.907389 29.375788 36.955078 29.384766 C 37.071527 29.406408 37.186544 29.436885 37.300781 29.474609 C 37.339971 29.487655 37.379164 29.498699 37.417969 29.513672 C 37.570414 29.572061 37.719271 29.641653 37.863281 29.730469 C 37.863281 29.730469 37.865234 29.730469 37.865234 29.730469 L 52.037109 38.46875 L 52.257812 38.689453 C 52.668839 39.100878 53.002875 39.560895 53.259766 40.050781 C 53.602286 40.703963 53.808449 41.409411 53.876953 42.126953 C 53.911205 42.485724 53.911205 42.848269 53.876953 43.207031 C 53.808449 43.924557 53.602286 44.630105 53.259766 45.283203 C 53.002875 45.773027 52.668839 46.233206 52.257812 46.644531 L 52.037109 46.865234 L 37.863281 55.603516 C 37.427281 55.873249 36.943864 56 36.466797 56 C 36.24323 56 36.020345 55.972877 35.804688 55.917969 C 35.372622 55.808008 34.968862 55.590699 34.634766 55.275391 C 34.467858 55.118199 34.319426 54.936989 34.193359 54.732422 C 34.096809 54.575722 34.019803 54.414459 33.958984 54.248047 C 33.91341 54.123756 33.887524 53.996455 33.861328 53.869141 C 33.852334 53.82523 33.834854 53.782387 33.828125 53.738281 C 33.80186 53.56712 33.791689 53.395623 33.798828 53.224609 C 33.805989 53.053547 33.829732 52.88475 33.869141 52.71875 C 33.947911 52.386854 34.090213 52.069231 34.291016 51.787109 C 34.391705 51.645643 34.507095 51.514102 34.636719 51.392578 C 34.7656 51.27175 34.90812 51.160676 35.064453 51.064453 L 48.5625 42.742188 C 48.5761 42.69272 48.5761 42.641264 48.5625 42.591797 L 35.064453 34.271484 C 34.750886 34.078484 34.491818 33.831316 34.291016 33.548828 C 34.291016 33.548828 34.291016 33.546875 34.291016 33.546875 C 34.090734 33.264736 33.947782 32.947074 33.869141 32.615234 C 33.790324 32.283234 33.775629 31.93615 33.828125 31.59375 C 33.88057 31.251618 34.000809 30.914534 34.193359 30.601562 C 34.193359 30.601562 34.193359 30.599609 34.193359 30.599609 C 34.201585 30.586272 34.214235 30.577594 34.222656 30.564453 C 34.327113 30.401601 34.446838 30.255074 34.578125 30.123047 C 34.625774 30.075148 34.677842 30.03589 34.728516 29.992188 C 34.831984 29.902741 34.938403 29.819604 35.052734 29.748047 C 35.110446 29.712038 35.168489 29.679786 35.228516 29.648438 C 35.353113 29.583107 35.48069 29.529116 35.613281 29.484375 C 35.667077 29.466269 35.718641 29.444341 35.773438 29.429688 C 35.963459 29.378675 36.158209 29.344122 36.355469 29.335938 z M 58.048828 29.335938 C 58.200634 29.329639 58.353804 29.339542 58.505859 29.359375 C 58.555134 29.365878 58.603271 29.377399 58.652344 29.386719 C 58.76425 29.407785 58.874514 29.43668 58.984375 29.472656 C 59.028126 29.487036 59.071961 29.498847 59.115234 29.515625 C 59.265944 29.573853 59.413993 29.642364 59.556641 29.730469 L 73.730469 38.46875 L 73.951172 38.689453 C 74.08818 38.826595 74.216055 38.968033 74.335938 39.115234 C 74.33624 39.115606 74.335635 39.116816 74.335938 39.117188 C 74.455438 39.264004 74.567452 39.414828 74.669922 39.570312 C 74.670209 39.570747 74.669635 39.571831 74.669922 39.572266 C 74.875021 39.883682 75.046792 40.210679 75.183594 40.548828 C 75.320602 40.887489 75.423683 41.237046 75.492188 41.591797 C 75.629196 42.301298 75.629196 43.03272 75.492188 43.742188 C 75.423683 44.096921 75.320602 44.446529 75.183594 44.785156 C 74.909577 45.46241 74.499205 46.096098 73.951172 46.644531 L 73.730469 46.865234 L 59.556641 55.603516 C 59.120641 55.873249 58.637223 56 58.160156 56 C 57.93659 56 57.713705 55.972877 57.498047 55.917969 C 57.282436 55.863096 57.073661 55.781086 56.876953 55.673828 C 56.679819 55.566338 56.49527 55.432993 56.328125 55.275391 C 56.161217 55.118199 56.012785 54.936989 55.886719 54.732422 C 55.78982 54.575156 55.711301 54.413134 55.650391 54.246094 C 55.589782 54.080305 55.547777 53.910769 55.521484 53.740234 C 55.521385 53.739588 55.521583 53.738928 55.521484 53.738281 C 55.495219 53.56712 55.485048 53.395623 55.492188 53.224609 C 55.499348 53.053547 55.523092 52.88475 55.5625 52.71875 C 55.64127 52.386854 55.783573 52.069231 55.984375 51.787109 C 56.185213 51.504909 56.444246 51.257453 56.757812 51.064453 L 70.253906 42.742188 C 70.267506 42.692724 70.267506 42.641262 70.253906 42.591797 L 56.757812 34.271484 C 56.600588 34.174713 56.45758 34.063157 56.328125 33.941406 C 56.199307 33.820485 56.084593 33.689482 55.984375 33.548828 C 55.984046 33.548365 55.984704 33.547338 55.984375 33.546875 C 55.784094 33.264736 55.641141 32.947074 55.5625 32.615234 C 55.404867 31.951234 55.500519 31.228363 55.886719 30.601562 C 55.886996 30.601112 55.886441 30.600059 55.886719 30.599609 C 55.894944 30.586272 55.907595 30.577594 55.916016 30.564453 C 56.020511 30.40154 56.140139 30.255112 56.271484 30.123047 C 56.317072 30.07722 56.3657 30.038081 56.414062 29.996094 C 56.521341 29.902808 56.632947 29.818111 56.751953 29.744141 C 56.807251 29.70984 56.862508 29.678471 56.919922 29.648438 C 57.044841 29.582869 57.173679 29.529241 57.306641 29.484375 C 57.360436 29.466269 57.412001 29.444341 57.466797 29.429688 C 57.656818 29.378676 57.851569 29.344122 58.048828 29.335938 z "
       id="path4156"
       transform="matrix(0.74999998,0,0,-0.74999998,0,64)" /></g></svg>